<svg width="159" height="58" viewBox="0 0 159 58" fill="none" xmlns="http://www.w3.org/2000/svg">
<path d="M46.5 36.4793H50.8771V27.6823H52.3659C54.4502 27.6823 55.3733 28.5564 55.9688 31.3477C56.5048 33.9699 57.0705 35.859 57.3981 36.4793H61.924C61.4774 35.6617 60.8819 33.0677 60.2268 30.5019C59.6908 28.3026 58.7975 26.8365 57.1896 26.2444V26.1598C59.3335 25.3703 61.1201 23.4248 61.1201 20.7744C61.1201 14.9662 55.284 14.6278 52.3957 14.6278C50.1625 14.6278 48.0186 14.8252 46.5 15.0789V36.4793ZM50.8771 17.9831C51.2344 17.8703 51.9193 17.8139 52.9019 17.8139C54.5098 17.8139 56.7132 18.3496 56.7132 21.141C56.7132 23.1992 55.1946 24.5808 52.6934 24.5808H50.8771V17.9831Z" fill="#FA7436"/>
<path d="M77.7726 29.8816C77.8619 29.4305 77.8917 28.8383 77.8917 28.218C77.8917 23.1429 75.2714 20.4361 71.2516 20.4361C66.3981 20.4361 63.6587 24.3271 63.6587 28.8383C63.6587 33.7162 66.5768 36.7613 71.6983 36.7613C73.7528 36.7613 75.6883 36.4229 77.058 35.859L76.4327 32.9831C75.3012 33.3496 74.0208 33.6316 72.3831 33.6316C70.001 33.6316 67.9763 32.5602 67.8572 29.8816H77.7726ZM67.8572 26.9774C67.9763 25.4267 68.8695 23.3402 70.9836 23.3402C73.1573 23.3402 73.8422 25.3421 73.8124 26.9774H67.8572Z" fill="#FA7436"/>
<path d="M84.8528 22.9173L84.6444 20.8026H80.833C80.8926 22.1842 80.9521 23.6786 80.9521 25.5113V36.4793H85.359V27.1466C85.359 24.75 86.9967 23.8759 88.1877 23.8759C90.0636 23.8759 90.7187 25.3985 90.7187 27.3158V36.4793H95.1256V26.8647C95.1256 22.4662 92.7733 20.4643 89.7361 20.4643C87.3242 20.4643 85.6865 21.7613 84.9421 22.9173H84.8528Z" fill="#FA7436"/>
<path d="M97.6088 20.7744V23.8477H99.7825V31.094C99.7825 32.8421 99.8718 36.7613 104.636 36.7613C105.916 36.7613 106.988 36.6203 107.584 36.3947L107.524 33.2086C107.078 33.2932 106.72 33.3496 106.095 33.3496C104.755 33.3496 104.13 32.5602 104.13 30.6711V23.8477H107.792V20.7744H104.13V16.6861L99.7825 17.8985V20.7744H97.6088Z" fill="#FA7436"/>
<path d="M115.08 16.4887C115.08 15.1917 114.128 14.2613 112.698 14.2613C111.329 14.2613 110.346 15.1917 110.346 16.4887C110.346 17.7575 111.299 18.7162 112.698 18.7162C114.068 18.7162 115.08 17.8421 115.08 16.4887ZM110.525 20.7744V36.4793H114.932V20.7744H110.525Z" fill="#FA7436"/>
<path d="M117.262 20.7744V23.8477H119.465V36.4793H123.872V23.8477H127.147V20.7744H123.842C123.842 19.1955 123.842 16.8271 126.313 16.8271C126.998 16.8271 127.505 16.9399 127.921 17.0808L128.249 13.8665C127.594 13.6692 126.73 13.5 125.629 13.5C122.383 13.5 119.465 15.3891 119.465 20.1259V20.7744H117.262Z" fill="#FA7436"/>
<path d="M136.483 28.9793C136.244 29.9662 135.976 31.0658 135.798 31.9117H135.708C135.5 31.0376 135.202 29.938 134.934 28.9793L132.493 20.7744H127.669L133.237 35.2105C133.356 35.5207 133.416 35.7462 133.416 35.9154C133.416 36.2256 132.671 37.8327 131.212 38.8195C130.438 39.3271 129.604 39.7782 128.89 39.9756L129.991 43.5C130.974 43.3308 132.671 42.7669 134.279 41.3008C136.155 39.5244 137.554 36.7613 139.401 31.6861L143.152 20.7744H138.567L136.483 28.9793Z" fill="#FA7436"/>
<path d="M152.33 28.9793C152.092 29.9662 151.824 31.0658 151.645 31.9117H151.556C151.348 31.0376 151.05 29.938 150.782 28.9793L148.34 20.7744H143.516L149.085 35.2105C149.204 35.5207 149.263 35.7462 149.263 35.9154C149.263 36.2256 148.519 37.8327 147.06 38.8195C146.286 39.3271 145.452 39.7782 144.737 39.9756L145.839 43.5C146.822 43.3308 148.519 42.7669 150.127 41.3008C152.003 39.5244 153.402 36.7613 155.248 31.6861L159 20.7744H154.414L152.33 28.9793Z" fill="#FA7436"/>
<path d="M19.6962 39.5634L19.7557 39.5105C19.7425 39.5105 19.7227 39.5105 19.7094 39.5105L19.6962 39.5634Z" fill="url(#paint0_linear_1095_3775)"/>
<path d="M39.5103 19.7551C39.5103 8.84715 30.6697 0 19.7551 0C8.84715 0 0 8.84059 0 19.7551V56.2267L17.2283 41.6433C14.859 40.8689 10.4223 38.9721 7.17355 34.9949C7.18668 35.0014 7.19324 35.008 7.1998 35.0145C10.4092 37.6792 14.3537 39.2018 18.5147 39.4709C23.995 39.8188 29.4555 37.817 33.4131 34.0169C37.292 30.3087 39.5103 25.1107 39.5103 19.7551ZM19.7551 27.526C15.4628 27.526 11.9844 24.0475 11.9844 19.7551C11.9844 15.4628 15.4628 11.9844 19.7551 11.9844C24.0475 11.9844 27.526 15.4628 27.526 19.7551C27.526 24.0475 24.0475 27.526 19.7551 27.526Z" fill="#FA7436"/>
<path d="M31.1402 56.3229C35.8632 56.3229 39.692 52.4941 39.692 47.7711C39.692 43.048 35.8632 39.2192 31.1402 39.2192C26.4172 39.2192 22.5884 43.048 22.5884 47.7711C22.5884 52.4941 26.4172 56.3229 31.1402 56.3229Z" fill="#FFFDFC"/>
<path d="M7.21295 35.0139L0.0065918 56.2261L17.2349 41.6427C12.3125 39.9297 8.74874 37.0748 7.21295 35.0139Z" fill="url(#paint1_linear_1095_3775)"/>
<path d="M31.0305 38.2134C25.9957 38.2134 21.9139 42.4463 21.9139 47.6676L21.9142 47.6843L21.9139 47.701C21.9139 52.904 25.9729 57.1218 30.9804 57.1218L30.9998 57.1212L31.0305 57.1218C36.0653 57.1218 40.1471 52.8888 40.1471 47.6676C40.1471 42.4463 36.0653 38.2134 31.0305 38.2134ZM39.5393 47.6676C39.5393 48.422 39.4475 49.1541 39.2761 49.8528C39.1968 49.796 38.9871 50.0305 38.9355 49.7198C38.8707 49.334 38.4514 49.0662 38.2256 49.2505C37.9998 49.4349 37.3547 49.9709 37.3227 50.3063C37.2902 50.6413 37.0158 51.0434 36.8873 50.7591C36.7578 50.4742 36.3713 49.5858 36.3871 49.3514C36.4029 49.1169 36.209 49.4352 35.9197 48.966C35.6292 48.4967 35.1293 48.8985 34.726 48.6641C34.3228 48.4293 33.8712 48.111 33.6451 48.0108C33.4199 47.9099 34.0484 48.9489 34.1292 48.815C34.2104 48.6811 34.5325 48.9155 34.6294 48.9155C34.7264 48.9155 34.984 49.15 34.823 49.3681C34.6619 49.5862 33.2267 50.4919 33.0814 50.2561C32.9356 50.0204 32.0816 48.1948 31.9361 48.3067C31.7908 48.4186 32.8395 50.323 33.017 50.4402C33.1939 50.5577 33.7266 50.4572 33.9843 50.34C34.2426 50.2227 33.4522 51.6472 33.1139 51.8148C32.7754 51.9822 32.5013 52.5018 32.646 52.7363C32.7912 52.9708 32.8073 53.8591 32.5013 53.9767C32.1944 54.0936 32.0816 54.278 32.1783 54.496C32.2746 54.7135 31.9528 55.0819 31.8075 55.3167C31.662 55.5511 31.098 56.0371 31.0493 56.1713C31.0013 56.3056 30.3079 56.2719 30.0331 56.2719C29.7593 56.2719 29.9687 55.9199 29.9362 55.6186C29.9046 55.3167 29.6627 55.0318 29.6627 54.8811C29.6627 54.7302 29.5816 54.3782 29.4691 54.2108C29.3564 54.0429 29.3236 53.7246 29.4366 53.5405C29.55 53.3559 29.6302 52.8201 29.405 52.5854C29.1789 52.3509 28.9206 51.9485 29.0984 51.6302C29.2759 51.3119 28.9048 51.3456 28.5985 51.1943C28.2919 51.0434 27.6628 51.2447 27.3404 51.2952C27.0177 51.3453 26.6956 51.2113 26.5986 51.0434C26.502 50.876 26.2923 50.4572 26.0775 50.3564C25.8632 50.2562 25.986 49.8203 26.1149 49.653C26.2443 49.4856 25.986 49.167 26.1149 49.0325C26.2443 48.8985 26.3245 48.4129 26.5825 48.3067C26.8408 48.2008 26.7922 48.128 26.8001 47.8765C26.8083 47.625 27.0903 47.625 27.1383 47.4911C27.187 47.3569 27.3319 47.29 27.623 47.29C27.9132 47.29 28.4046 47.1139 28.6386 47.0553C28.8726 46.9967 29.2759 46.9128 29.2433 47.1476C29.2111 47.3821 29.2193 47.6499 29.3722 47.6499C29.5257 47.6499 29.7353 47.7423 29.9772 47.8986C30.2191 48.0546 30.227 47.9269 30.2595 47.7508C30.2921 47.5746 30.6303 47.6417 30.9804 47.8094C31.3304 47.9771 31.8078 47.8595 31.9604 47.8431C32.1139 47.8258 32.1786 47.3487 32.1382 47.1895C32.0974 47.0304 31.8559 47.2648 31.7027 47.1643C31.5495 47.0641 31.3396 47.1895 31.1867 47.0468C31.0332 46.9046 31.0089 46.5693 31.1867 46.5611C31.3639 46.5526 31.4529 46.494 31.5574 46.3686C31.6626 46.2428 32.0576 46.1675 32.2108 46.2929C32.3636 46.4187 32.59 46.5025 32.7265 46.3601C32.8635 46.2179 32.453 45.9416 32.3636 45.8659C32.2749 45.7906 32.3475 45.5476 32.2591 45.5476C32.1701 45.5476 32.0974 45.5892 32.1461 45.7068C32.1944 45.824 31.8881 46.0333 31.8391 45.9164C31.7911 45.7988 31.7106 45.5729 31.5896 45.5729C31.469 45.5729 31.3076 46.1426 31.2994 46.2346C31.2912 46.327 31.0816 46.4776 30.9126 46.4776C30.7436 46.4776 30.7436 46.679 30.8321 46.7713C30.9208 46.8633 30.8561 47.2321 30.695 47.2532C30.5336 47.2746 30.4771 47.2154 30.4531 47.0726C30.4291 46.9305 30.2677 46.9472 30.2595 46.6538C30.2513 46.3604 30.0739 46.2183 29.9611 46.084C29.8484 45.9498 29.5579 45.5561 29.4451 45.7323C29.3324 45.9085 29.8484 46.2854 29.9851 46.3856C30.1228 46.4861 30.0985 46.7039 30.0259 46.7543C29.9532 46.8047 29.8162 47.2154 29.7356 47.2485C29.6545 47.2819 29.5776 47.1237 29.5776 47.1237C29.4567 47.0735 29.7466 46.9226 29.7952 46.8473C29.8432 46.772 29.2874 46.2441 29.1871 46.0931C29.0868 45.9422 28.6584 46.2186 28.4651 46.1184C28.2715 46.0181 27.981 46.4953 27.9573 46.7716C27.9327 47.0483 27.6182 47.1233 27.328 47.1233C27.0381 47.1233 26.8442 46.8974 26.9414 46.6711C27.0381 46.4448 26.8928 46.0679 27.0624 46.0427C27.2316 46.0178 27.7148 46.0427 27.8117 45.7663C27.9084 45.49 27.352 45.2385 27.5702 45.1884C27.7874 45.138 28.1266 44.7866 28.3685 44.5852C28.6097 44.3841 28.6341 44.133 28.8516 44.1153C29.0698 44.098 28.8036 43.6801 28.9972 43.5547C29.1911 43.429 29.2391 44.0072 29.3844 44.0072C29.5296 44.0072 29.8192 43.9568 30.0614 44.0826C30.3036 44.2083 30.3759 43.9568 30.4729 43.6297C30.5695 43.3032 30.8114 43.127 31.2949 42.8759C31.7787 42.6244 30.7391 42.9512 30.5452 42.6997C30.3516 42.4482 30.6178 41.8952 30.7391 41.5047C30.86 41.1139 30.3519 41.8952 30.0857 42.2976C29.8192 42.6997 30.1583 42.8756 30.1337 43.1519C30.1097 43.4286 29.6749 43.7551 29.6749 43.7551C29.4813 43.7803 29.5053 43.3782 29.4087 43.2024C29.3117 43.0265 29.1422 43.1018 28.876 43.3029C28.6097 43.504 28.5857 42.8255 28.5134 42.5488C28.4414 42.2727 28.9489 41.9204 29.1874 41.7326C29.4257 41.5441 29.8192 40.6387 30.255 39.9353C30.6908 39.2316 31.3195 39.5833 31.4888 39.86C31.6586 40.136 32.0932 39.9602 32.505 40.4632C32.9164 40.9658 32.408 41.1918 31.9491 40.9876C31.4888 40.7833 32.0455 41.4937 32.3111 41.6947C32.5773 41.8955 32.7225 41.2422 32.8195 41.0916C32.9161 40.9406 33.2786 41.0162 33.5445 40.6138C33.811 40.2117 34.4155 40.2873 34.7607 40.3314C35.1062 40.3759 35.0202 40.1112 34.8026 39.8947C34.6416 39.7346 34.971 39.8748 35.3587 40.0711C37.8606 41.6068 39.5393 44.4333 39.5393 47.6676ZM27.3966 44.6649C27.3164 44.5789 27.4778 44.2401 27.5501 44.1396C27.623 44.0391 27.3483 44.0725 27.365 44.2152C27.3811 44.3574 27.2599 44.5754 27.0906 44.634C26.9214 44.6927 26.7284 44.6756 26.8247 44.5165C26.9211 44.3574 26.8326 44.2149 26.76 44.064C26.6877 43.913 27.163 43.821 27.2602 43.729C27.3568 43.6369 27.1073 43.578 27.1149 43.4359C27.1231 43.2931 27.1797 43.1677 27.2757 43.151C27.3726 43.1343 27.4632 43.07 27.5501 43.0757C27.8166 43.0927 27.7352 43.7208 27.8324 43.9221C27.929 44.1229 28.2035 44.3662 28.1791 44.5417C28.1548 44.7179 28.1032 44.8184 27.9056 44.768C27.7072 44.7176 27.3896 45.0277 27.2681 44.969C27.1468 44.9101 27.4778 44.751 27.3966 44.6649ZM25.659 41.1413C25.9012 41.2668 26.0942 41.0392 26.2631 40.9904C26.4634 40.933 26.5777 41.6692 26.3844 41.644C26.1908 41.6188 25.9732 42.0461 25.6937 42.0209C25.4138 41.9957 25.5378 41.7949 25.2233 41.4934C25.1558 41.4284 25.1281 41.3698 25.1257 41.3185C25.1929 41.2513 25.2597 41.1839 25.3293 41.1193C25.4381 41.0893 25.5672 41.0938 25.659 41.1413ZM33.2264 53.7914C33.4522 53.7413 33.4087 53.2957 33.6135 53.272C34.049 53.2219 33.6296 54.4784 33.4686 54.8304C33.3072 55.1824 33.2422 55.1654 33.0887 54.9476C32.9346 54.7302 32.9845 54.3779 33.0887 54.2105C33.1926 54.0426 33.0003 53.8418 33.2264 53.7914Z" fill="#FA7436"/>
<defs>
<linearGradient id="paint0_linear_1095_3775" x1="8.7008" y1="58.1323" x2="40.6054" y2="4.2704" gradientUnits="userSpaceOnUse">
<stop stop-color="white"/>
<stop offset="1" stop-color="#0575E6"/>
</linearGradient>
<linearGradient id="paint1_linear_1095_3775" x1="-3.30899" y1="33.9319" x2="9.60811" y2="50.1732" gradientUnits="userSpaceOnUse">
<stop stop-color="white"/>
<stop offset="1" stop-color="white" stop-opacity="0"/>
</linearGradient>
</defs>
</svg>
