<svg width="159" height="58" viewBox="0 0 159 58" fill="none" xmlns="http://www.w3.org/2000/svg">
<path d="M46.5 36.4793H50.8771V27.6823H52.3659C54.4502 27.6823 55.3733 28.5564 55.9688 31.3477C56.5048 33.9699 57.0705 35.859 57.3981 36.4793H61.924C61.4774 35.6617 60.8819 33.0677 60.2268 30.5019C59.6908 28.3026 58.7975 26.8365 57.1896 26.2444V26.1598C59.3335 25.3703 61.1201 23.4248 61.1201 20.7744C61.1201 14.9662 55.284 14.6278 52.3957 14.6278C50.1625 14.6278 48.0186 14.8252 46.5 15.0789V36.4793ZM50.8771 17.9831C51.2344 17.8703 51.9193 17.8139 52.9019 17.8139C54.5098 17.8139 56.7132 18.3496 56.7132 21.141C56.7132 23.1992 55.1946 24.5808 52.6934 24.5808H50.8771V17.9831Z" fill="white"/>
<path d="M77.7726 29.8816C77.8619 29.4305 77.8917 28.8383 77.8917 28.218C77.8917 23.1429 75.2714 20.4361 71.2516 20.4361C66.3981 20.4361 63.6587 24.3271 63.6587 28.8383C63.6587 33.7162 66.5768 36.7613 71.6983 36.7613C73.7528 36.7613 75.6883 36.4229 77.058 35.859L76.4327 32.9831C75.3012 33.3496 74.0208 33.6316 72.3831 33.6316C70.001 33.6316 67.9763 32.5602 67.8572 29.8816H77.7726ZM67.8572 26.9774C67.9763 25.4267 68.8695 23.3402 70.9836 23.3402C73.1573 23.3402 73.8422 25.3421 73.8124 26.9774H67.8572Z" fill="white"/>
<path d="M84.8528 22.9173L84.6444 20.8026H80.833C80.8926 22.1842 80.9521 23.6786 80.9521 25.5113V36.4793H85.359V27.1466C85.359 24.75 86.9967 23.8759 88.1877 23.8759C90.0636 23.8759 90.7187 25.3985 90.7187 27.3158V36.4793H95.1256V26.8647C95.1256 22.4662 92.7733 20.4643 89.7361 20.4643C87.3242 20.4643 85.6865 21.7613 84.9421 22.9173H84.8528Z" fill="white"/>
<path d="M97.6088 20.7744V23.8477H99.7825V31.094C99.7825 32.8421 99.8718 36.7613 104.636 36.7613C105.916 36.7613 106.988 36.6203 107.584 36.3947L107.524 33.2086C107.078 33.2932 106.72 33.3496 106.095 33.3496C104.755 33.3496 104.13 32.5602 104.13 30.6711V23.8477H107.792V20.7744H104.13V16.6861L99.7825 17.8985V20.7744H97.6088Z" fill="white"/>
<path d="M115.08 16.4887C115.08 15.1917 114.128 14.2613 112.698 14.2613C111.329 14.2613 110.346 15.1917 110.346 16.4887C110.346 17.7575 111.299 18.7162 112.698 18.7162C114.068 18.7162 115.08 17.8421 115.08 16.4887ZM110.525 20.7744V36.4793H114.932V20.7744H110.525Z" fill="white"/>
<path d="M117.262 20.7744V23.8477H119.465V36.4793H123.872V23.8477H127.147V20.7744H123.842C123.842 19.1955 123.842 16.8271 126.314 16.8271C126.998 16.8271 127.505 16.9399 127.921 17.0808L128.249 13.8665C127.594 13.6692 126.73 13.5 125.629 13.5C122.383 13.5 119.465 15.3891 119.465 20.1259V20.7744H117.262Z" fill="white"/>
<path d="M136.483 28.9793C136.244 29.9662 135.976 31.0658 135.798 31.9117H135.708C135.5 31.0376 135.202 29.938 134.934 28.9793L132.493 20.7744H127.669L133.237 35.2105C133.356 35.5207 133.416 35.7462 133.416 35.9154C133.416 36.2256 132.671 37.8327 131.212 38.8195C130.438 39.3271 129.604 39.7782 128.89 39.9756L129.991 43.5C130.974 43.3308 132.671 42.7669 134.279 41.3008C136.155 39.5244 137.554 36.7613 139.401 31.6861L143.152 20.7744H138.567L136.483 28.9793Z" fill="white"/>
<path d="M152.33 28.9793C152.092 29.9662 151.824 31.0658 151.645 31.9117H151.556C151.348 31.0376 151.05 29.938 150.782 28.9793L148.34 20.7744H143.516L149.085 35.2105C149.204 35.5207 149.263 35.7462 149.263 35.9154C149.263 36.2256 148.519 37.8327 147.06 38.8195C146.286 39.3271 145.452 39.7782 144.737 39.9756L145.839 43.5C146.822 43.3308 148.519 42.7669 150.127 41.3008C152.003 39.5244 153.402 36.7613 155.248 31.6861L159 20.7744H154.414L152.33 28.9793Z" fill="white"/>
<path d="M19.696 39.5634L19.7556 39.5105C19.7424 39.5105 19.7225 39.5105 19.7093 39.5105L19.696 39.5634Z" fill="url(#paint0_linear_1095_3876)"/>
<path d="M39.5103 19.7551C39.5103 8.84715 30.6697 0 19.7551 0C8.84715 0 0 8.84059 0 19.7551V56.2267L17.2283 41.6433C14.859 40.8689 10.4223 38.9721 7.17355 34.9948C7.18668 35.0014 7.19324 35.008 7.1998 35.0145C10.4092 37.6792 14.3537 39.2018 18.5147 39.4709C23.995 39.8188 29.4555 37.817 33.4131 34.0169C37.292 30.3087 39.5103 25.1107 39.5103 19.7551ZM19.7551 27.526C15.4628 27.526 11.9844 24.0475 11.9844 19.7551C11.9844 15.4628 15.4628 11.9844 19.7551 11.9844C24.0475 11.9844 27.526 15.4628 27.526 19.7551C27.526 24.0475 24.0475 27.526 19.7551 27.526Z" fill="white"/>
<path d="M7.21295 35.0139L0.0065918 56.2261L17.2349 41.6427C12.3125 39.9297 8.74874 37.0748 7.21295 35.0139Z" fill="url(#paint1_linear_1095_3876)"/>
<path d="M31.0306 38.2134C25.9958 38.2134 21.9141 42.4463 21.9141 47.6676L21.9144 47.6843L21.9141 47.701C21.9141 52.904 25.9731 57.1218 30.9805 57.1218L30.9999 57.1212L31.0306 57.1218C36.0654 57.1218 40.1472 52.8888 40.1472 47.6676C40.1472 42.4463 36.0654 38.2134 31.0306 38.2134ZM39.5394 47.6676C39.5394 48.422 39.4476 49.1541 39.2762 49.8528C39.1969 49.796 38.9872 50.0305 38.9356 49.7198C38.8709 49.334 38.4515 49.0662 38.2257 49.2505C37.9999 49.4349 37.3548 49.9709 37.3229 50.3063C37.2904 50.6413 37.0159 51.0434 36.8874 50.7591C36.7579 50.4742 36.3714 49.5858 36.3872 49.3514C36.403 49.1169 36.2091 49.4352 35.9198 48.966C35.6293 48.4967 35.1294 48.8985 34.7262 48.6641C34.3229 48.4293 33.8713 48.111 33.6453 48.0108C33.4201 47.9099 34.0485 48.9489 34.1293 48.815C34.2105 48.6811 34.5326 48.9155 34.6295 48.9155C34.7265 48.9155 34.9842 49.15 34.8231 49.3681C34.662 49.5862 33.2268 50.4919 33.0815 50.2561C32.9357 50.0204 32.0818 48.1948 31.9362 48.3067C31.7909 48.4186 32.8396 50.323 33.0171 50.4402C33.194 50.5577 33.7267 50.4572 33.9844 50.34C34.2427 50.2227 33.4523 51.6472 33.1141 51.8148C32.7755 51.9822 32.5014 52.5018 32.6461 52.7363C32.7913 52.9708 32.8074 53.8591 32.5014 53.9767C32.1945 54.0936 32.0818 54.278 32.1784 54.496C32.2747 54.7135 31.9529 55.0819 31.8077 55.3167C31.6621 55.5511 31.0981 56.0371 31.0495 56.1713C31.0014 56.3056 30.308 56.2719 30.0333 56.2719C29.7595 56.2719 29.9688 55.9199 29.9363 55.6186C29.9047 55.3167 29.6628 55.0318 29.6628 54.8811C29.6628 54.7302 29.5817 54.3782 29.4693 54.2108C29.3565 54.0429 29.3237 53.7246 29.4367 53.5405C29.5501 53.3559 29.6303 52.8201 29.4051 52.5854C29.179 52.3509 28.9207 51.9485 29.0985 51.6302C29.276 51.3119 28.9049 51.3456 28.5986 51.1943C28.292 51.0434 27.663 51.2447 27.3405 51.2952C27.0178 51.3453 26.6957 51.2113 26.5988 51.0434C26.5021 50.876 26.2924 50.4572 26.0776 50.3564C25.8634 50.2561 25.9861 49.8203 26.115 49.653C26.2444 49.4856 25.9861 49.167 26.115 49.0325C26.2444 48.8985 26.3247 48.4129 26.5827 48.3067C26.841 48.2008 26.7923 48.128 26.8002 47.8765C26.8084 47.625 27.0904 47.625 27.1385 47.4911C27.1871 47.3569 27.332 47.29 27.6232 47.29C27.9134 47.29 28.4047 47.1139 28.6387 47.0553C28.8727 46.9967 29.276 46.9128 29.2435 47.1476C29.2113 47.3821 29.2195 47.6499 29.3723 47.6499C29.5258 47.6499 29.7355 47.7423 29.9774 47.8986C30.2192 48.0546 30.2271 47.9269 30.2597 47.7508C30.2922 47.5746 30.6304 47.6417 30.9805 47.8094C31.3306 47.9771 31.808 47.8595 31.9605 47.8431C32.114 47.8258 32.1787 47.3487 32.1383 47.1895C32.0976 47.0304 31.856 47.2648 31.7028 47.1643C31.5497 47.0641 31.3397 47.1895 31.1868 47.0468C31.0334 46.9046 31.009 46.5693 31.1868 46.5611C31.364 46.5526 31.453 46.494 31.5576 46.3686C31.6627 46.2428 32.0578 46.1675 32.2109 46.2929C32.3638 46.4187 32.5902 46.5025 32.7266 46.3601C32.8637 46.2179 32.4531 45.9416 32.3638 45.8659C32.275 45.7906 32.3477 45.5476 32.2592 45.5476C32.1702 45.5476 32.0976 45.5892 32.1462 45.7068C32.1945 45.824 31.8882 46.0333 31.8393 45.9164C31.7912 45.7988 31.7107 45.5729 31.5898 45.5729C31.4691 45.5729 31.3078 46.1426 31.2996 46.2346C31.2914 46.327 31.0817 46.4776 30.9127 46.4776C30.7438 46.4776 30.7438 46.679 30.8322 46.7713C30.9209 46.8633 30.8562 47.2321 30.6951 47.2532C30.5338 47.2746 30.4772 47.2154 30.4532 47.0726C30.4292 46.9305 30.2679 46.9472 30.2597 46.6538C30.2515 46.3604 30.074 46.2183 29.9612 46.084C29.8485 45.9498 29.558 45.5561 29.4453 45.7323C29.3325 45.9085 29.8485 46.2854 29.9853 46.3856C30.1229 46.4861 30.0986 46.7039 30.026 46.7543C29.9533 46.8047 29.8163 47.2154 29.7358 47.2485C29.6546 47.2819 29.5777 47.1237 29.5777 47.1237C29.4568 47.0735 29.7467 46.9226 29.7953 46.8473C29.8433 46.772 29.2875 46.2441 29.1873 46.0931C29.087 45.9422 28.6585 46.2186 28.4652 46.1184C28.2716 46.0181 27.9811 46.4953 27.9574 46.7716C27.9328 47.0483 27.6183 47.1233 27.3281 47.1233C27.0382 47.1233 26.8443 46.8974 26.9415 46.6711C27.0382 46.4448 26.8929 46.0679 27.0625 46.0427C27.2318 46.0178 27.7149 46.0427 27.8119 45.7663C27.9085 45.49 27.3521 45.2385 27.5703 45.1884C27.7876 45.138 28.1267 44.7866 28.3686 44.5852C28.6099 44.3841 28.6342 44.133 28.8518 44.1153C29.07 44.098 28.8037 43.6801 28.9973 43.5547C29.1912 43.429 29.2392 44.0072 29.3845 44.0072C29.5297 44.0072 29.8193 43.9568 30.0615 44.0826C30.3037 44.2083 30.3761 43.9568 30.473 43.6297C30.5696 43.3032 30.8115 43.127 31.295 42.8759C31.7788 42.6244 30.7392 42.9512 30.5453 42.6997C30.3517 42.4482 30.6179 41.8952 30.7392 41.5047C30.8601 41.1139 30.352 41.8952 30.0858 42.2976C29.8193 42.6997 30.1585 42.8756 30.1339 43.1519C30.1098 43.4286 29.675 43.7551 29.675 43.7551C29.4814 43.7803 29.5054 43.3782 29.4088 43.2024C29.3118 43.0265 29.1423 43.1018 28.8761 43.3029C28.6099 43.504 28.5859 42.8255 28.5135 42.5488C28.4415 42.2727 28.949 41.9204 29.1876 41.7326C29.4258 41.5441 29.8193 40.6387 30.2551 39.9353C30.6909 39.2316 31.3196 39.5833 31.4889 39.86C31.6588 40.136 32.0933 39.9602 32.5051 40.4632C32.9165 40.9658 32.4081 41.1918 31.9493 40.9876C31.4889 40.7833 32.0456 41.4937 32.3112 41.6947C32.5774 41.8955 32.7227 41.2422 32.8196 41.0916C32.9162 40.9406 33.2788 41.0162 33.5447 40.6138C33.8112 40.2117 34.4156 40.2873 34.7608 40.3314C35.1063 40.3759 35.0203 40.1112 34.8027 39.8947C34.6417 39.7346 34.9711 39.8748 35.3589 40.0711C37.8607 41.6068 39.5394 44.4333 39.5394 47.6676ZM27.3968 44.6649C27.3165 44.5789 27.4779 44.2401 27.5502 44.1396C27.6232 44.0391 27.3484 44.0725 27.3652 44.2152C27.3813 44.3574 27.26 44.5754 27.0907 44.634C26.9215 44.6927 26.7285 44.6756 26.8248 44.5165C26.9212 44.3574 26.8327 44.2149 26.7601 44.064C26.6878 43.913 27.1631 43.821 27.2603 43.729C27.357 43.6369 27.1075 43.578 27.1151 43.4359C27.1233 43.2931 27.1798 43.1677 27.2758 43.151C27.3728 43.1343 27.4633 43.07 27.5502 43.0757C27.8167 43.0927 27.7353 43.7208 27.8325 43.9221C27.9292 44.1229 28.2036 44.3662 28.1793 44.5417C28.155 44.7179 28.1033 44.8184 27.9058 44.768C27.7073 44.7176 27.3898 45.0277 27.2682 44.969C27.147 44.9101 27.4779 44.751 27.3968 44.6649ZM25.6591 41.1413C25.9013 41.2668 26.0943 41.0392 26.2633 40.9904C26.4635 40.933 26.5778 41.6692 26.3845 41.644C26.1909 41.6188 25.9734 42.0461 25.6938 42.0209C25.4139 41.9957 25.5379 41.7949 25.2234 41.4934C25.1559 41.4284 25.1283 41.3698 25.1258 41.3185C25.193 41.2513 25.2598 41.1839 25.3294 41.1193C25.4382 41.0893 25.5674 41.0938 25.6591 41.1413ZM33.2265 53.7914C33.4523 53.7413 33.4088 53.2957 33.6136 53.272C34.0491 53.2219 33.6298 54.4784 33.4687 54.8304C33.3073 55.1824 33.2423 55.1654 33.0888 54.9476C32.9348 54.7302 32.9846 54.3779 33.0888 54.2105C33.1928 54.0426 33.0004 53.8418 33.2265 53.7914Z" fill="white"/>

<defs>
<linearGradient id="paint0_linear_1095_3876" x1="8.70067" y1="58.1323" x2="40.6053" y2="4.2704" gradientUnits="userSpaceOnUse">
<stop stop-color="white"/>
<stop offset="1" stop-color="#0575E6"/>
</linearGradient>
<linearGradient id="paint1_linear_1095_3876" x1="-3.30899" y1="33.9319" x2="9.60811" y2="50.1732" gradientUnits="userSpaceOnUse">
<stop stop-color="white"/>
<stop offset="1" stop-color="white" stop-opacity="0"/>
</linearGradient>
<linearGradient id="paint2_linear_1095_3876" x1="13.7007" y1="138.132" x2="45.6053" y2="84.2704" gradientUnits="userSpaceOnUse">
<stop stop-color="white"/>
<stop offset="1" stop-color="#0575E6"/>
</linearGradient>
<linearGradient id="paint3_linear_1095_3876" x1="1.69101" y1="113.932" x2="14.6081" y2="130.173" gradientUnits="userSpaceOnUse">
<stop stop-color="white"/>
<stop offset="1" stop-color="white" stop-opacity="0"/>
</linearGradient>
</defs>
</svg>
