<svg width="159" height="57" viewBox="0 0 159 57" fill="none" xmlns="http://www.w3.org/2000/svg">
<path d="M46.5 36.4793H50.8771V27.6823H52.3659C54.4502 27.6823 55.3733 28.5564 55.9688 31.3477C56.5048 33.9699 57.0705 35.859 57.3981 36.4793H61.924C61.4774 35.6617 60.8819 33.0677 60.2268 30.5019C59.6908 28.3026 58.7975 26.8365 57.1896 26.2444V26.1598C59.3335 25.3703 61.1201 23.4248 61.1201 20.7744C61.1201 14.9662 55.284 14.6278 52.3957 14.6278C50.1625 14.6278 48.0186 14.8252 46.5 15.0789V36.4793ZM50.8771 17.9831C51.2344 17.8703 51.9193 17.8139 52.9019 17.8139C54.5098 17.8139 56.7132 18.3496 56.7132 21.141C56.7132 23.1992 55.1946 24.5808 52.6934 24.5808H50.8771V17.9831Z" fill="#FA7436"/>
<path d="M77.7726 29.8816C77.8619 29.4305 77.8917 28.8383 77.8917 28.218C77.8917 23.1429 75.2714 20.4361 71.2516 20.4361C66.3981 20.4361 63.6587 24.3271 63.6587 28.8383C63.6587 33.7162 66.5768 36.7613 71.6983 36.7613C73.7528 36.7613 75.6883 36.4229 77.058 35.859L76.4327 32.9831C75.3012 33.3496 74.0208 33.6316 72.3831 33.6316C70.001 33.6316 67.9763 32.5602 67.8572 29.8816H77.7726ZM67.8572 26.9774C67.9763 25.4267 68.8695 23.3402 70.9836 23.3402C73.1573 23.3402 73.8422 25.3421 73.8124 26.9774H67.8572Z" fill="#FA7436"/>
<path d="M84.8528 22.9173L84.6444 20.8026H80.833C80.8926 22.1842 80.9521 23.6786 80.9521 25.5113V36.4793H85.359V27.1466C85.359 24.75 86.9967 23.8759 88.1877 23.8759C90.0636 23.8759 90.7187 25.3985 90.7187 27.3158V36.4793H95.1256V26.8647C95.1256 22.4662 92.7733 20.4643 89.7361 20.4643C87.3242 20.4643 85.6865 21.7613 84.9421 22.9173H84.8528Z" fill="#FA7436"/>
<path d="M97.6088 20.7744V23.8477H99.7825V31.094C99.7825 32.8421 99.8718 36.7613 104.636 36.7613C105.916 36.7613 106.988 36.6203 107.584 36.3947L107.524 33.2086C107.078 33.2932 106.72 33.3496 106.095 33.3496C104.755 33.3496 104.13 32.5602 104.13 30.6711V23.8477H107.792V20.7744H104.13V16.6861L99.7825 17.8985V20.7744H97.6088Z" fill="#FA7436"/>
<path d="M115.08 16.4887C115.08 15.1917 114.128 14.2613 112.698 14.2613C111.329 14.2613 110.346 15.1917 110.346 16.4887C110.346 17.7575 111.299 18.7162 112.698 18.7162C114.068 18.7162 115.08 17.8421 115.08 16.4887ZM110.525 20.7744V36.4793H114.932V20.7744H110.525Z" fill="#FA7436"/>
<path d="M117.262 20.7744V23.8477H119.465V36.4793H123.872V23.8477H127.147V20.7744H123.842C123.842 19.1955 123.842 16.8271 126.313 16.8271C126.998 16.8271 127.505 16.9399 127.921 17.0808L128.249 13.8665C127.594 13.6692 126.73 13.5 125.629 13.5C122.383 13.5 119.465 15.3891 119.465 20.1259V20.7744H117.262Z" fill="#FA7436"/>
<path d="M136.483 28.9793C136.244 29.9662 135.976 31.0658 135.798 31.9117H135.708C135.5 31.0376 135.202 29.938 134.934 28.9793L132.493 20.7744H127.669L133.237 35.2105C133.356 35.5207 133.416 35.7462 133.416 35.9154C133.416 36.2256 132.671 37.8327 131.212 38.8195C130.438 39.3271 129.604 39.7782 128.89 39.9756L129.991 43.5C130.974 43.3308 132.671 42.7669 134.279 41.3008C136.155 39.5244 137.554 36.7613 139.401 31.6861L143.152 20.7744H138.567L136.483 28.9793Z" fill="#FA7436"/>
<path d="M152.33 28.9793C152.092 29.9662 151.824 31.0658 151.645 31.9117H151.556C151.348 31.0376 151.05 29.938 150.782 28.9793L148.34 20.7744H143.516L149.085 35.2105C149.204 35.5207 149.263 35.7462 149.263 35.9154C149.263 36.2256 148.519 37.8327 147.06 38.8195C146.286 39.3271 145.452 39.7782 144.737 39.9756L145.839 43.5C146.822 43.3308 148.519 42.7669 150.127 41.3008C152.003 39.5244 153.402 36.7613 155.248 31.6861L159 20.7744H154.414L152.33 28.9793Z" fill="#FA7436"/>
<path d="M19.696 39.5634L19.7556 39.5105C19.7424 39.5105 19.7225 39.5105 19.7093 39.5105L19.696 39.5634Z" fill="url(#paint0_linear_877_3799)"/>
<path d="M39.5103 19.7551C39.5103 8.84715 30.6697 0 19.7551 0C8.84715 0 0 8.84059 0 19.7551V56.2267L17.2283 41.6433C14.859 40.8689 10.4223 38.9721 7.17355 34.9949C7.18668 35.0014 7.19324 35.008 7.1998 35.0145C10.4092 37.6792 14.3537 39.2018 18.5147 39.4709C23.995 39.8188 29.4555 37.817 33.4131 34.0169C37.292 30.3087 39.5103 25.1107 39.5103 19.7551ZM19.7551 27.526C15.4628 27.526 11.9844 24.0475 11.9844 19.7551C11.9844 15.4628 15.4628 11.9844 19.7551 11.9844C24.0475 11.9844 27.526 15.4628 27.526 19.7551C27.526 24.0475 24.0475 27.526 19.7551 27.526Z" fill="#FA7436"/>
<path d="M31.1402 56.3229C35.8632 56.3229 39.692 52.4941 39.692 47.7711C39.692 43.048 35.8632 39.2192 31.1402 39.2192C26.4172 39.2192 22.5884 43.048 22.5884 47.7711C22.5884 52.4941 26.4172 56.3229 31.1402 56.3229Z" fill="#FFFDFC"/>
<path d="M7.21295 35.0139L0.0065918 56.2261L17.2349 41.6427C12.3125 39.9297 8.74874 37.0748 7.21295 35.0139Z" fill="url(#paint1_linear_877_3799)"/>
<defs>
<linearGradient id="paint0_linear_877_3799" x1="8.70067" y1="58.1323" x2="40.6053" y2="4.2704" gradientUnits="userSpaceOnUse">
<stop stop-color="white"/>
<stop offset="1" stop-color="#0575E6"/>
</linearGradient>
<linearGradient id="paint1_linear_877_3799" x1="-3.30899" y1="33.9319" x2="9.60811" y2="50.1732" gradientUnits="userSpaceOnUse">
<stop stop-color="white"/>
<stop offset="1" stop-color="white" stop-opacity="0"/>
</linearGradient>
</defs>
</svg>
